<svg xmlns:dc="http://purl.org/dc/elements/1.1/" xmlns:cc="http://creativecommons.org/ns#" xmlns:rdf="http://www.w3.org/1999/02/22-rdf-syntax-ns#" xmlns:svg="http://www.w3.org/2000/svg" xmlns="http://www.w3.org/2000/svg" xmlns:xlink="http://www.w3.org/1999/xlink" id="svg123505" viewBox="0 0 1024 768" height="500" width="1600" version="1.1" style="background-color: #212121">
  <metadata id="metadata123511">
    <rdf:rdf>
      <cc:work rdf:about="">
        <dc:format>image/svg+xml</dc:format>
        <dc:type rdf:resource="http://purl.org/dc/dcmitype/StillImage"></dc:type>
      </cc:work>
    </rdf:rdf>
  </metadata>
  <defs id="defs123509"></defs>
  <linearGradient spreadMethod="pad" y2="30%" x2="-10%" y1="120%" x1="30%" id="3d_gradient2-logo-0fff87dd-81b9-4783-bc42-2af89fcdaca5">
    <stop id="stop123486" stop-opacity="1" stop-color="#ffffff" offset="0%" style="--darkreader-inline-stopcolor: #181a1b;" data-darkreader-inline-stopcolor=""></stop>
    <stop id="stop123488" stop-opacity="1" stop-color="#000000" offset="100%" style="--darkreader-inline-stopcolor: #000000;" data-darkreader-inline-stopcolor=""></stop>
  </linearGradient>
  <linearGradient gradientTransform="rotate(-30)" spreadMethod="pad" y2="30%" x2="-10%" y1="120%" x1="30%" id="3d_gradient3-logo-0fff87dd-81b9-4783-bc42-2af89fcdaca5">
    <stop id="stop123491" stop-opacity="1" stop-color="#ffffff" offset="0%" style="--darkreader-inline-stopcolor: #181a1b;" data-darkreader-inline-stopcolor=""></stop>
    <stop id="stop123493" stop-opacity="1" stop-color="#cccccc" offset="50%" style="--darkreader-inline-stopcolor: #35393b;" data-darkreader-inline-stopcolor=""></stop>
    <stop id="stop123495" stop-opacity="1" stop-color="#000000" offset="100%" style="--darkreader-inline-stopcolor: #000000;" data-darkreader-inline-stopcolor=""></stop>
  </linearGradient>
  <g id="logo-group">
    <g id="logo-center" transform="translate(-1.1368683772161603e-13 0)">
      <image xlink:href="" id="icon_container" style="display: none;" x="0" y="0"></image>
      <g id="slogan" style="font-style:normal;font-weight:400;font-size:32px;line-height:1;font-family:Montserrat;font-variant-ligatures:none;text-align:center;text-anchor:middle" transform="translate(0 0)"></g>
      <g id="title" style="font-style:normal;font-weight:300;font-size:72px;line-height:1;font-family:'Montserrat Light Alt1';font-variant-ligatures:none;text-align:center;text-anchor:middle" transform="translate(0 0)">
        <path id="path123514" style="font-style: normal; font-weight: 300; font-size: 72px; line-height: 1; font-family: &quot;Montserrat Light Alt1&quot;; font-variant-ligatures: none; text-align: center; text-anchor: middle; --darkreader-inline-fill: #a78322; --darkreader-inline-stroke: #d8b042;" d="m 412.79412,-50.4 h -3.672 L 385.93813,0 h 3.95999 l 21.024,-46.368 21.096,46.368 h 3.96 z" stroke-width="0" stroke-linejoin="miter" stroke-miterlimit="2" fill="#d1a42b" stroke="#d1a42b" data-darkreader-inline-fill="" data-darkreader-inline-stroke="" transform="translate(0 363.20248000000004) translate(130.6764934000002 -53.32) scale(3.11) translate(-385.93813 50.4)"></path>
        <path id="path123516" style="font-style: normal; font-weight: 300; font-size: 72px; line-height: 1; font-family: &quot;Montserrat Light Alt1&quot;; font-variant-ligatures: none; text-align: center; text-anchor: middle; --darkreader-inline-fill: #a78322; --darkreader-inline-stroke: #d8b042;" d="m 445.12775,-50.4 v 3.312 h 32.256 V -50.4 Z m 0,50.4 h 3.672 v -22.248 h 28.584 v -3.312 h -32.256 z" stroke-width="0" stroke-linejoin="miter" stroke-miterlimit="2" fill="#d1a42b" stroke="#d1a42b" data-darkreader-inline-fill="" data-darkreader-inline-stroke="" transform="translate(0 363.20248000000004) translate(314.7562116000002 -53.32) scale(3.11) translate(-445.12775 50.4)"></path>
        <path id="path123518" style="font-style: normal; font-weight: 300; font-size: 72px; line-height: 1; font-family: &quot;Montserrat Light Alt1&quot;; font-variant-ligatures: none; text-align: center; text-anchor: middle; --darkreader-inline-fill: #a78322; --darkreader-inline-stroke: #d8b042;" d="m 510.16737,-4.248 c -2.08799,0.864 -4.392,1.296 -6.76799,1.296 -3.88801,0 -7.12801,-1.008 -9.86401,-3.024 -2.736,-2.016 -4.608,-4.752 -5.472,-8.208 l 31.75201,-6.192 c -0.21601,-3.312 -1.00801,-6.264 -2.592,-8.928 -1.58401,-2.664 -3.67201,-4.752 -6.264,-6.264 -2.59201,-1.512 -5.54401,-2.304 -8.78401,-2.304 -3.528,0 -6.696,0.864 -9.43199,2.448 -2.808,1.656 -4.96801,3.888 -6.55201,6.768 -1.584,2.88 -2.30399,6.192 -2.30399,9.864 0,3.744 0.79199,6.984 2.44799,9.864 1.656,2.88 3.96,5.184 6.912,6.768 2.952,1.656 6.264,2.448 10.08001,2.448 2.88,0 5.54399,-0.504 8.06399,-1.512 2.37601,-1.008 4.464,-2.52 6.12001,-4.608 l -2.08801,-2.376 c -1.43999,1.8 -3.168,3.096 -5.256,3.96 z m -15.62399,-28.44 c 2.23199,-1.296 4.75199,-2.016 7.63199,-2.016 2.448,0 4.752,0.576 6.768,1.656 2.01601,1.08 3.6,2.592 4.89601,4.392 1.22399,1.872 2.01599,3.96 2.37599,6.192 l -28.656,5.616 c -0.144,-0.936 -0.144,-1.656 -0.144,-2.232 0,-2.952 0.576,-5.688 1.872,-8.064 1.224,-2.376 2.952,-4.248 5.25601,-5.544 z" stroke-width="0" stroke-linejoin="miter" stroke-miterlimit="2" fill="#d1a42b" stroke="#d1a42b" data-darkreader-inline-fill="" data-darkreader-inline-stroke="" transform="translate(0 363.20248000000004) translate(435.29866090000036 -14.35792) scale(3.11) translate(-483.88738 37.872)"></path>
        <path id="path123520" style="font-style: normal; font-weight: 300; font-size: 72px; line-height: 1; font-family: &quot;Montserrat Light Alt1&quot;; font-variant-ligatures: none; text-align: center; text-anchor: middle; --darkreader-inline-fill: #a78322; --darkreader-inline-stroke: #d8b042;" d="m 549.67062,-2.376 -1.51199,-2.52 c -1.58401,1.44 -3.52801,2.088 -5.832,2.088 -2.30401,0 -4.10401,-0.576 -5.25601,-1.872 -1.15199,-1.296 -1.728,-3.168 -1.728,-5.616 v -24.192 h 11.952 v -3.096 h -11.952 v -8.208 h -3.6 v 8.208 h -6.91199 v 3.096 h 6.91199 v 24.552 c 0,3.24 0.864,5.76 2.664,7.56 1.72801,1.8 4.248,2.664 7.56001,2.664 1.43999,0 2.88,-0.216 4.24799,-0.648 1.368,-0.432 2.52001,-1.152 3.456,-2.016 z" stroke-width="0" stroke-linejoin="miter" stroke-miterlimit="2" fill="#d1a42b" stroke="#d1a42b" data-darkreader-inline-fill="" data-darkreader-inline-stroke="" transform="translate(0 363.20248000000004) translate(562.6321684000004 -38.98911999999999) scale(3.11) translate(-524.83063 45.792)"></path>
        <path id="path123522" style="font-style: normal; font-weight: 300; font-size: 72px; line-height: 1; font-family: &quot;Montserrat Light Alt1&quot;; font-variant-ligatures: none; text-align: center; text-anchor: middle; --darkreader-inline-fill: #a78322; --darkreader-inline-stroke: #d8b042;" d="m 563.41588,-2.16 c 2.88,1.656 6.12,2.448 9.792,2.448 3.02399,0 5.76,-0.576 8.208,-1.728 2.44799,-1.152 4.46399,-2.88 6.048,-5.184 l -2.664,-1.944 c -1.36801,1.872 -3.024,3.312 -5.04001,4.248 -2.016,0.936 -4.17599,1.368 -6.55199,1.368 -2.952,0 -5.61601,-0.648 -7.92001,-1.944 -2.304,-1.296 -4.17599,-3.168 -5.472,-5.616 -1.296,-2.376 -1.94399,-5.112 -1.94399,-8.28 0,-3.096 0.64799,-5.832 1.94399,-8.28 1.29601,-2.376 3.168,-4.248 5.472,-5.544 2.304,-1.296 4.96801,-2.016 7.92001,-2.016 2.376,0 4.53599,0.504 6.55199,1.44 2.01601,0.936 3.672,2.304 5.04001,4.176 l 2.664,-1.944 c -1.58401,-2.232 -3.60001,-3.96 -6.048,-5.112 -2.448,-1.152 -5.18401,-1.8 -8.208,-1.8 -3.672,0 -6.912,0.864 -9.792,2.448 -2.88,1.584 -5.18401,3.888 -6.76801,6.768 -1.65599,2.88 -2.44799,6.192 -2.44799,9.864 0,3.672 0.792,6.984 2.44799,9.864 1.584,2.88 3.88801,5.184 6.76801,6.768 z" stroke-width="0" stroke-linejoin="miter" stroke-miterlimit="2" fill="#d1a42b" stroke="#d1a42b" data-darkreader-inline-fill="" data-darkreader-inline-stroke="" transform="translate(0 363.20248000000004) translate(653.9705359000001 -14.35792) scale(3.11) translate(-554.19988 37.872)"></path>
        <path id="path123524" style="font-style: normal; font-weight: 300; font-size: 72px; line-height: 1; font-family: &quot;Montserrat Light Alt1&quot;; font-variant-ligatures: none; text-align: center; text-anchor: middle; --darkreader-inline-fill: #a78322; --darkreader-inline-stroke: #d8b042;" d="m 627.05825,-33.768 c -2.736,-2.736 -6.48,-4.104 -11.16,-4.104 -3.456,0 -6.48,0.72 -9,2.16 -2.592,1.44 -4.464,3.384 -5.76,5.976 v -23.688 h -3.6 V 0 h 3.6 v -20.016 c 0,-4.464 1.224,-7.992 3.816,-10.656 2.52,-2.592 5.976,-3.96 10.44,-3.96 3.816,0 6.768,1.152 8.928,3.312 2.16,2.232 3.24,5.472 3.24,9.648 V 0 h 3.6 v -21.96 c 0,-5.112 -1.368,-9.072 -4.104,-11.808 z" stroke-width="0" stroke-linejoin="miter" stroke-miterlimit="2" fill="#d1a42b" stroke="#d1a42b" data-darkreader-inline-fill="" data-darkreader-inline-stroke="" transform="translate(0 363.20248000000004) translate(788.7528665999998 -62.72464) scale(3.11) translate(-597.53825 53.424)"></path>
      </g>
      <image xlink:href="" id="icon" style="display: none;" x="0" y="0"></image>
    </g>
  </g>
</svg>