<svg xmlns="http://www.w3.org/2000/svg" width="1600" height="500" style="background-color:#212121" viewBox="0 0 1024 768"><g fill="#d1a42b" style="font-style:normal;font-weight:300;font-size:72px;line-height:1;font-family:&quot;Montserrat Light Alt1&quot;;font-variant-ligatures:none;text-align:center;text-anchor:middle"><path d="M412.794-50.4h-3.672L385.938 0h3.96l21.024-46.368L432.018 0h3.96zM445.128-50.4v3.312h32.256V-50.4Zm0 50.4h3.672v-22.248h28.584v-3.312h-32.256zM510.167-4.248c-2.088.864-4.392 1.296-6.768 1.296-3.888 0-7.128-1.008-9.864-3.024s-4.608-4.752-5.472-8.208l31.752-6.192c-.216-3.312-1.008-6.264-2.592-8.928q-2.376-3.996-6.264-6.264c-2.592-1.512-5.544-2.304-8.784-2.304-3.528 0-6.696.864-9.432 2.448-2.808 1.656-4.968 3.888-6.552 6.768s-2.304 6.192-2.304 9.864c0 3.744.792 6.984 2.448 9.864s3.96 5.184 6.912 6.768C496.2-.504 499.511.288 503.327.288c2.88 0 5.544-.504 8.064-1.512 2.376-1.008 4.464-2.52 6.12-4.608l-2.088-2.376c-1.44 1.8-3.168 3.096-5.256 3.96m-15.624-28.44c2.232-1.296 4.752-2.016 7.632-2.016 2.448 0 4.752.576 6.768 1.656s3.6 2.592 4.896 4.392a15.85 15.85 0 0 1 2.376 6.192l-28.656 5.616c-.144-.936-.144-1.656-.144-2.232 0-2.952.576-5.688 1.872-8.064 1.224-2.376 2.952-4.248 5.256-5.544M549.67-2.376l-1.511-2.52c-1.584 1.44-3.528 2.088-5.832 2.088s-4.104-.576-5.256-1.872q-1.728-1.944-1.728-5.616v-24.192h11.952v-3.096h-11.952v-8.208h-3.6v8.208h-6.912v3.096h6.912v24.552c0 3.24.864 5.76 2.664 7.56 1.728 1.8 4.248 2.664 7.56 2.664 1.44 0 2.88-.216 4.248-.648a9.1 9.1 0 0 0 3.456-2.016M563.416-2.16c2.88 1.656 6.12 2.448 9.792 2.448q4.536 0 8.208-1.728t6.048-5.184L584.8-8.568c-1.368 1.872-3.024 3.312-5.04 4.248s-4.176 1.368-6.552 1.368c-2.952 0-5.616-.648-7.92-1.944a13.7 13.7 0 0 1-5.472-5.616c-1.296-2.376-1.944-5.112-1.944-8.28 0-3.096.648-5.832 1.944-8.28a14 14 0 0 1 5.472-5.544c2.304-1.296 4.968-2.016 7.92-2.016 2.376 0 4.536.504 6.552 1.44s3.672 2.304 5.04 4.176l2.664-1.944c-1.584-2.232-3.6-3.96-6.048-5.112s-5.184-1.8-8.208-1.8c-3.672 0-6.912.864-9.792 2.448a17 17 0 0 0-6.768 6.768c-1.656 2.88-2.448 6.192-2.448 9.864s.792 6.984 2.448 9.864a17 17 0 0 0 6.768 6.768M627.058-33.768c-2.736-2.736-6.48-4.104-11.16-4.104-3.456 0-6.48.72-9 2.16-2.592 1.44-4.464 3.384-5.76 5.976v-23.688h-3.6V0h3.6v-20.016c0-4.464 1.224-7.992 3.816-10.656 2.52-2.592 5.976-3.96 10.44-3.96 3.816 0 6.768 1.152 8.928 3.312 2.16 2.232 3.24 5.472 3.24 9.648V0h3.6v-21.96c0-5.112-1.368-9.072-4.104-11.808" style="font-style:normal;font-weight:300;font-size:72px;line-height:1;font-family:&quot;Montserrat Light Alt1&quot;;font-variant-ligatures:none;text-align:center;text-anchor:middle;--darkreader-inline-fill:#a78322;--darkreader-inline-stroke:#d8b042" transform="translate(-1069.591 466.626)scale(3.11)"/></g></svg>